# xmcd CD database file generated by OrangeCD 6.3
#
# Track frame offsets:
#	150
#	8734
#	21611
#	36729
#	46922
#	55955
#	72562
#	86606
#	96757
#	104444
#	112847
#	122787
#	138146
#
# Disc length: 2103 seconds
#
# Revision: 0
# Processed by: cddbd v1.5.2PL0 Copyright (c) Steve Scherf et al.
# Submitted via: OrangeCD 6.3
#
DISCID=b408350d
DTITLE=Richard Kiser - Guitar Classics
DYEAR=2009
DGENRE=
TTITLE0=Oh By Jingo
TTITLE1=Windy and Warm
TTITLE2=Yesterday
TTITLE3=Baby's Coming Home
TTITLE4=Ghost Riders In The Sky
TTITLE5=Sleepwalk
TTITLE6=Dueling Banjos
TTITLE7=Last Date
TTITLE8=In The Mood
TTITLE9=Rebel Rouser
TTITLE10=Walk Don't Run
TTITLE11=Maria Elena
TTITLE12=Malaguena
EXTD=
EXTT0=
EXTT1=
EXTT2=
EXTT3=
EXTT4=
EXTT5=
EXTT6=
EXTT7=
EXTT8=
EXTT9=
EXTT10=
EXTT11=
EXTT12=
PLAYORDER=
